<svg width="238" height="214" viewBox="0 0 238 214" fill="none" xmlns="http://www.w3.org/2000/svg">
<path fill-rule="evenodd" clip-rule="evenodd" d="M44.5 173.1C47.3 176.7 48.9 181.3 48.9 186.2C48.9 191.1 47.2 195.6 44.5 199.3H10.1C7.30001 195.6 5.7 191.1 5.7 186.2C5.7 181.3 7.40001 176.7 10.1 173.1H44.5V173.1Z" fill="#DD2A1B"/>
<path fill-rule="evenodd" clip-rule="evenodd" d="M90.3 173.1C93.1 176.7 94.7 181.3 94.7 186.2C94.7 191.1 93 195.6 90.3 199.3H56C53.2 195.6 51.6 191.1 51.6 186.2C51.6 181.3 53.2 176.7 56 173.1H90.3V173.1Z" fill="#AD498C"/>
<path fill-rule="evenodd" clip-rule="evenodd" d="M136.1 173.1C138.9 176.7 140.5 181.3 140.5 186.2C140.5 191.1 138.8 195.6 136.1 199.3H101.7C98.9 195.6 97.3 191.1 97.3 186.2C97.3 181.3 99 176.7 101.7 173.1H136.1V173.1Z" fill="#F17E00"/>
<path fill-rule="evenodd" clip-rule="evenodd" d="M227.8 173.1C230.6 176.7 232.2 181.3 232.2 186.2C232.2 191.1 230.5 195.6 227.8 199.3H193.3C190.5 195.6 188.9 191.1 188.9 186.2C188.9 181.3 190.6 176.7 193.3 173.1H227.8V173.1Z" fill="#800000"/>
<path fill-rule="evenodd" clip-rule="evenodd" d="M159 133.4C161.8 137 163.4 141.6 163.4 146.5C163.4 151.4 161.7 155.9 159 159.6H124.7C121.9 155.9 120.3 151.4 120.3 146.5C120.3 141.6 122 137 124.7 133.4H159Z" fill="#FBBC07"/>
<path fill-rule="evenodd" clip-rule="evenodd" d="M204.8 133.4C207.6 137 209.2 141.6 209.2 146.5C209.2 151.4 207.5 155.9 204.8 159.6H170.4C167.6 155.9 166 151.4 166 146.5C166 141.6 167.7 137 170.4 133.4H204.8Z" fill="#00A3D3"/>
<path fill-rule="evenodd" clip-rule="evenodd" d="M187.7 123.6C200.3 123.6 210.6 133.8 210.6 146.5C210.6 159.1 200.4 169.4 187.7 169.4C175 169.4 164.8 159.1 164.8 146.5C164.7 133.8 175 123.6 187.7 123.6ZM187.7 126.3C198.8 126.3 207.8 135.4 207.8 146.5C207.8 157.6 198.8 166.6 187.7 166.6C176.5 166.6 167.5 157.6 167.5 146.5C167.4 135.4 176.4 126.3 187.7 126.3Z" fill="#141515"/>
<path fill-rule="evenodd" clip-rule="evenodd" d="M141.8 88.8C153.7 88.8 163.4 79.1 163.4 67.2C163.4 55.3 153.7 45.6 141.8 45.6C129.9 45.6 120.2 55.3 120.2 67.2C120.2 79.1 129.9 88.8 141.8 88.8Z" fill="#DD2A1B"/>
<path fill-rule="evenodd" clip-rule="evenodd" d="M164.7 128.4C176.6 128.4 186.3 118.7 186.3 106.8C186.3 94.9 176.6 85.2 164.7 85.2C152.8 85.2 143.1 94.9 143.1 106.8C143.1 118.7 152.8 128.4 164.7 128.4Z" fill="#00671E"/>
<path fill-rule="evenodd" clip-rule="evenodd" d="M96.1 88.8C107.9 88.8 117.7 79.1 117.7 67.2C117.7 55.3 107.9 45.6 96.1 45.6C84.2 45.6 74.4 55.3 74.4 67.2C74.4 79.1 84.1 88.8 96.1 88.8Z" fill="#00A3D3"/>
<path fill-rule="evenodd" clip-rule="evenodd" d="M73.1 128.4C85 128.4 94.7 118.7 94.7 106.8C94.7 94.9 85 85.2 73.1 85.2C61.2 85.2 51.5 94.9 51.5 106.8C51.5 118.7 61.2 128.4 73.1 128.4Z" fill="#AD498C"/>
<path fill-rule="evenodd" clip-rule="evenodd" d="M50.2 168.1C62.1 168.1 71.8 158.4 71.8 146.5C71.8 134.6 62.1 124.9 50.2 124.9C38.3 124.9 28.6 134.6 28.6 146.5C28.6 158.4 38.3 168.1 50.2 168.1Z" fill="#800000"/>
<path fill-rule="evenodd" clip-rule="evenodd" d="M96.1 168.1C107.9 168.1 117.7 158.4 117.7 146.5C117.7 134.6 107.9 124.9 96.1 124.9C84.2 124.9 74.4 134.6 74.4 146.5C74.4 158.4 84.1 168.1 96.1 168.1Z" fill="#141515"/>
<path fill-rule="evenodd" clip-rule="evenodd" d="M181.9 173.1C184.7 176.7 186.3 181.3 186.3 186.2C186.3 191.1 184.6 195.6 181.9 199.3H147.5C144.7 195.6 143.1 191.1 143.1 186.2C143.1 181.3 144.7 176.7 147.5 173.1H181.9V173.1Z" fill="#00671E"/>
<path fill-rule="evenodd" clip-rule="evenodd" d="M118.9 128.4C130.8 128.4 140.6 118.7 140.6 106.8C140.6 94.9 130.8 85.2 118.9 85.2C107 85.2 97.3 94.9 97.3 106.8C97.3 118.7 107 128.4 118.9 128.4Z" fill="#F17E00"/>
<path fill-rule="evenodd" clip-rule="evenodd" d="M210.5 193C214.3 193 217.4 190 217.4 186.2C217.4 182.4 214.4 179.3 210.5 179.3C206.8 179.3 203.7 182.3 203.7 186.2C203.7 189.9 206.8 193 210.5 193Z" fill="#FEFEFE"/>
<path fill-rule="evenodd" clip-rule="evenodd" d="M118.9 49.1C130.8 49.1 140.6 39.4 140.6 27.5C140.6 15.6 130.8 5.89999 118.9 5.89999C107 5.89999 97.3 15.6 97.3 27.5C97.3 39.4 107 49.1 118.9 49.1Z" fill="#FBBC07"/>
<path fill-rule="evenodd" clip-rule="evenodd" d="M141.8 74C145.5 74 148.7 71 148.7 67.2C148.7 63.5 145.6 60.3 141.8 60.3C138.1 60.3 134.9 63.4 134.9 67.2C135 70.9 138.1 74 141.8 74Z" fill="#FEFEFE"/>
<path fill-rule="evenodd" clip-rule="evenodd" d="M27.3 163.3C40 163.3 50.2 173.5 50.2 186.2C50.2 198.8 40 209.1 27.3 209.1C14.7 209.1 4.40001 198.9 4.40001 186.2C4.40001 173.5 14.7 163.3 27.3 163.3ZM27.3 166C38.5 166 47.5 175.1 47.5 186.2C47.5 197.3 38.5 206.3 27.3 206.3C16.2 206.3 7.2 197.3 7.2 186.2C7.1 175 16.1 166 27.3 166Z" fill="#141515"/>
<path fill-rule="evenodd" clip-rule="evenodd" d="M73.1 163.3C85.8 163.3 96 173.5 96 186.2C96 198.8 85.8 209.1 73.1 209.1C60.4 209.1 50.2 198.9 50.2 186.2C50.2 173.5 60.5 163.3 73.1 163.3ZM73.1 166C84.2 166 93.3 175.1 93.3 186.2C93.3 197.3 84.2 206.3 73.1 206.3C62 206.3 52.9 197.3 52.9 186.2C52.9 175 62 166 73.1 166Z" fill="#141515"/>
<path fill-rule="evenodd" clip-rule="evenodd" d="M118.9 163.3C131.6 163.3 141.8 173.5 141.8 186.2C141.8 198.8 131.6 209.1 118.9 209.1C106.3 209.1 96 198.9 96 186.2C96.1 173.5 106.3 163.3 118.9 163.3ZM118.9 166C130 166 139.1 175.1 139.1 186.2C139.1 197.3 130 206.3 118.9 206.3C107.8 206.3 98.8 197.3 98.8 186.2C98.8 175 107.8 166 118.9 166Z" fill="#141515"/>
<path fill-rule="evenodd" clip-rule="evenodd" d="M118.9 50.4C131.6 50.4 141.8 40.2 141.8 27.5C141.8 14.8 131.6 4.60001 118.9 4.60001C106.3 4.60001 96 14.8 96 27.5C96 40.2 106.3 50.4 118.9 50.4ZM118.9 47.7C130 47.7 139.1 38.6 139.1 27.5C139.1 16.4 130 7.29999 118.9 7.29999C107.8 7.29999 98.8 16.4 98.8 27.5C98.8 38.6 107.8 47.7 118.9 47.7Z" fill="#141515"/>
<path fill-rule="evenodd" clip-rule="evenodd" d="M164.7 163.3C177.4 163.3 187.6 173.5 187.6 186.2C187.6 198.8 177.4 209.1 164.7 209.1C152 209.1 141.8 198.9 141.8 186.2C141.8 173.5 152.1 163.3 164.7 163.3ZM164.7 166C175.8 166 184.9 175.1 184.9 186.2C184.9 197.3 175.8 206.3 164.7 206.3C153.6 206.3 144.5 197.3 144.5 186.2C144.5 175 153.6 166 164.7 166Z" fill="#141515"/>
<path fill-rule="evenodd" clip-rule="evenodd" d="M210.5 163.3C223.2 163.3 233.4 173.5 233.4 186.2C233.4 198.8 223.2 209.1 210.5 209.1C197.9 209.1 187.6 198.9 187.6 186.2C187.7 173.5 197.9 163.3 210.5 163.3ZM210.5 166C221.6 166 230.7 175.1 230.7 186.2C230.7 197.3 221.6 206.3 210.5 206.3C199.4 206.3 190.4 197.3 190.4 186.2C190.4 175 199.4 166 210.5 166Z" fill="#141515"/>
<path fill-rule="evenodd" clip-rule="evenodd" d="M164.7 129.8C177.4 129.8 187.6 119.6 187.6 106.9C187.6 94.2 177.4 83.9 164.7 83.9C152 83.9 141.8 94.1 141.8 106.8C141.8 119.5 152.1 129.8 164.7 129.8ZM164.7 127.1C175.8 127.1 184.9 118 184.9 106.9C184.9 95.8 175.8 86.7 164.7 86.7C153.6 86.7 144.5 95.8 144.5 106.9C144.5 118 153.6 127.1 164.7 127.1Z" fill="#141515"/>
<path fill-rule="evenodd" clip-rule="evenodd" d="M118.9 129.8C131.6 129.8 141.8 119.6 141.8 106.9C141.8 94.2 131.6 83.9 118.9 83.9C106.3 83.9 96 94.1 96 106.8C96 119.5 106.3 129.8 118.9 129.8ZM118.9 127.1C130 127.1 139.1 118 139.1 106.9C139.1 95.8 130 86.7 118.9 86.7C107.8 86.7 98.8 95.8 98.8 106.9C98.8 118 107.8 127.1 118.9 127.1Z" fill="#141515"/>
<path fill-rule="evenodd" clip-rule="evenodd" d="M73.1 129.8C85.8 129.8 96 119.6 96 106.9C96 94.2 85.8 83.9 73.1 83.9C60.4 83.9 50.2 94.1 50.2 106.8C50.2 119.5 60.5 129.8 73.1 129.8ZM73.1 127.1C84.2 127.1 93.3 118 93.3 106.9C93.3 95.8 84.2 86.7 73.1 86.7C62 86.7 52.9 95.8 52.9 106.9C52.9 118 62 127.1 73.1 127.1Z" fill="#141515"/>
<path fill-rule="evenodd" clip-rule="evenodd" d="M141.8 123.6C154.5 123.6 164.7 133.8 164.7 146.5C164.7 159.1 154.5 169.4 141.8 169.4C129.1 169.4 118.9 159.1 118.9 146.5C118.9 133.8 129.2 123.6 141.8 123.6ZM141.8 126.3C152.9 126.3 162 135.4 162 146.5C162 157.6 152.9 166.6 141.8 166.6C130.7 166.6 121.6 157.6 121.6 146.5C121.6 135.4 130.7 126.3 141.8 126.3Z" fill="#141515"/>
<path fill-rule="evenodd" clip-rule="evenodd" d="M141.8 90.1C154.5 90.1 164.7 79.9 164.7 67.2C164.7 54.5 154.5 44.3 141.8 44.3C129.1 44.3 118.9 54.5 118.9 67.2C118.9 79.9 129.2 90.1 141.8 90.1ZM141.8 87.4C152.9 87.4 162 78.3 162 67.2C162 56.1 152.9 47 141.8 47C130.7 47 121.6 56.1 121.6 67.2C121.6 78.3 130.7 87.4 141.8 87.4Z" fill="#141515"/>
<path fill-rule="evenodd" clip-rule="evenodd" d="M96.1 123.6C108.7 123.6 119 133.8 119 146.5C119 159.1 108.8 169.4 96.1 169.4C83.4 169.4 73.2 159.1 73.2 146.5C73.1 133.8 83.4 123.6 96.1 123.6ZM96.1 126.3C107.2 126.3 116.2 135.4 116.2 146.5C116.2 157.6 107.2 166.6 96.1 166.6C84.9 166.6 75.9 157.6 75.9 146.5C75.8 135.4 84.8 126.3 96.1 126.3Z" fill="#141515"/>
<path fill-rule="evenodd" clip-rule="evenodd" d="M96.1 90.1C108.7 90.1 119 79.9 119 67.2C119 54.5 108.8 44.3 96.1 44.3C83.4 44.3 73.2 54.5 73.2 67.2C73.2 79.9 83.4 90.1 96.1 90.1ZM96.1 87.4C107.2 87.4 116.2 78.3 116.2 67.2C116.2 56.1 107.2 47 96.1 47C84.9 47 75.9 56.1 75.9 67.2C75.8 78.3 84.8 87.4 96.1 87.4Z" fill="#141515"/>
<path fill-rule="evenodd" clip-rule="evenodd" d="M50.2 123.6C62.9 123.6 73.1 133.8 73.1 146.5C73.1 159.1 62.9 169.4 50.2 169.4C37.5 169.4 27.3 159.1 27.3 146.5C27.3 133.8 37.5 123.6 50.2 123.6ZM50.2 126.3C61.3 126.3 70.4 135.4 70.4 146.5C70.4 157.6 61.3 166.6 50.2 166.6C39.1 166.6 30 157.6 30 146.5C30 135.4 39.1 126.3 50.2 126.3Z" fill="#141515"/>
<path fill-rule="evenodd" clip-rule="evenodd" d="M118.9 213.5H209.4C210 213.5 210.6 213.5 211.3 213.5C226 213.1 237.9 201 237.9 186.1C237.9 181.5 236.7 177.2 234.8 173.4C234.5 172.9 234.2 172.4 234 171.9L143.5 15.1C143 14.2 142.5 13.4 142 12.5C137.2 5 128.8 0 119.1 0C119 0 118.8 0 118.8 0C109.2 0.1 100.8 5.1 95.9 12.5C95.3 13.3 94.9 14.2 94.4 15.1L3.90001 171.9C3.60001 172.4 3.30001 172.9 3.10001 173.4C1.10001 177.2 0 181.6 0 186.1C0 200.9 11.8 213 26.6 213.5C27.2 213.5 27.9 213.5 28.5 213.5H118.9ZM118.9 4.60001C127 4.60001 134.1 8.80001 138.1 15.1C138.6 15.9 139.1 16.7 139.6 17.5C169.8 69.8 200 122.1 230.2 174.5C230.5 174.9 230.7 175.3 231 175.8C232.6 178.9 233.5 182.4 233.5 186.3C233.5 198.7 223.7 208.7 211.4 209.2C210.8 209.3 210.2 209.2 209.5 209.2H118.9H28.4C27.8 209.2 27.2 209.3 26.5 209.2C14.2 208.8 4.40001 198.7 4.40001 186.3C4.40001 182.5 5.30001 179 6.90001 175.8C7.10001 175.3 7.4 174.9 7.7 174.5C37.9 122.2 68.1 69.8 98.3 17.5C98.8 16.7 99.2 15.9 99.8 15.1C103.8 8.70001 110.9 4.60001 118.9 4.60001Z" fill="#141515"/>
<path fill-rule="evenodd" clip-rule="evenodd" d="M118.9 34.3C122.7 34.3 125.8 31.2 125.8 27.4C125.8 23.6 122.8 20.5 118.9 20.5C115.2 20.5 112.1 23.6 112.1 27.4C112.1 31.2 115.2 34.3 118.9 34.3Z" fill="#FEFEFE"/>
<path fill-rule="evenodd" clip-rule="evenodd" d="M96.1 74C99.8 74 102.9 71 102.9 67.2C102.9 63.5 99.9 60.3 96.1 60.3C92.3 60.3 89.2 63.4 89.2 67.2C89.2 70.9 92.2 74 96.1 74Z" fill="#FEFEFE"/>
<path fill-rule="evenodd" clip-rule="evenodd" d="M73.1 113.6C76.8 113.6 79.9 110.6 79.9 106.8C79.9 103 76.9 99.9 73.1 99.9C69.3 99.9 66.2 102.9 66.2 106.8C66.3 110.6 69.3 113.6 73.1 113.6Z" fill="#FEFEFE"/>
<path fill-rule="evenodd" clip-rule="evenodd" d="M50.2 153.3C53.9 153.3 57.1 150.3 57.1 146.5C57.1 142.7 54 139.6 50.2 139.6C46.5 139.6 43.3 142.6 43.3 146.5C43.4 150.3 46.5 153.3 50.2 153.3Z" fill="#FEFEFE"/>
<path fill-rule="evenodd" clip-rule="evenodd" d="M27.3 193C31.1 193 34.2 190 34.2 186.2C34.2 182.4 31.2 179.3 27.3 179.3C23.6 179.3 20.5 182.3 20.5 186.2C20.5 189.9 23.6 193 27.3 193Z" fill="#FEFEFE"/>
<path fill-rule="evenodd" clip-rule="evenodd" d="M73.1 193C76.8 193 79.9 190 79.9 186.2C79.9 182.4 76.9 179.3 73.1 179.3C69.3 179.3 66.2 182.3 66.2 186.2C66.3 189.9 69.3 193 73.1 193Z" fill="#FEFEFE"/>
<path fill-rule="evenodd" clip-rule="evenodd" d="M118.9 193C122.7 193 125.8 190 125.8 186.2C125.8 182.4 122.8 179.3 118.9 179.3C115.2 179.3 112.1 182.3 112.1 186.2C112.1 189.9 115.2 193 118.9 193Z" fill="#FEFEFE"/>
<path fill-rule="evenodd" clip-rule="evenodd" d="M164.7 193C168.4 193 171.5 190 171.5 186.2C171.5 182.4 168.5 179.3 164.7 179.3C160.9 179.3 157.8 182.3 157.8 186.2C157.9 189.9 160.9 193 164.7 193Z" fill="#FEFEFE"/>
<path fill-rule="evenodd" clip-rule="evenodd" d="M187.7 153.3C191.4 153.3 194.5 150.3 194.5 146.5C194.5 142.7 191.5 139.6 187.7 139.6C183.9 139.6 180.8 142.6 180.8 146.5C180.8 150.3 183.9 153.3 187.7 153.3Z" fill="#FEFEFE"/>
<path fill-rule="evenodd" clip-rule="evenodd" d="M164.7 113.6C168.4 113.6 171.5 110.6 171.5 106.8C171.5 103 168.5 99.9 164.7 99.9C160.9 99.9 157.8 102.9 157.8 106.8C157.9 110.6 160.9 113.6 164.7 113.6Z" fill="#FEFEFE"/>
<path fill-rule="evenodd" clip-rule="evenodd" d="M96.1 153.3C99.8 153.3 102.9 150.3 102.9 146.5C102.9 142.7 99.9 139.6 96.1 139.6C92.3 139.6 89.2 142.6 89.2 146.5C89.2 150.3 92.2 153.3 96.1 153.3Z" fill="#FEFEFE"/>
<path fill-rule="evenodd" clip-rule="evenodd" d="M118.9 113.6C122.7 113.6 125.8 110.6 125.8 106.8C125.8 103 122.8 99.9 118.9 99.9C115.2 99.9 112.1 102.9 112.1 106.8C112.1 110.6 115.2 113.6 118.9 113.6Z" fill="#FEFEFE"/>
<path fill-rule="evenodd" clip-rule="evenodd" d="M141.8 153.3C145.5 153.3 148.7 150.3 148.7 146.5C148.7 142.7 145.6 139.6 141.8 139.6C138.1 139.6 134.9 142.6 134.9 146.5C135 150.3 138.1 153.3 141.8 153.3Z" fill="#FEFEFE"/>
<path d="M208.8 189H207.9V183.5C207.7 183.7 207.4 183.9 207.1 184.1C206.8 184.3 206.5 184.4 206.2 184.5V183.7C206.7 183.5 207.1 183.2 207.5 182.9C207.9 182.6 208.1 182.3 208.3 182H208.9V189H208.8Z" fill="#141515"/>
<path d="M210.4 187.2L211.3 187.1C211.4 187.5 211.5 187.9 211.8 188.1C212 188.3 212.3 188.4 212.7 188.4C213.1 188.4 213.5 188.2 213.8 187.9C214.1 187.6 214.2 187.2 214.2 186.7C214.2 186.2 214.1 185.8 213.8 185.5C213.5 185.2 213.2 185.1 212.7 185.1C212.4 185.1 212.2 185.2 212 185.3C211.8 185.4 211.6 185.6 211.5 185.8L210.7 185.7L211.4 182.1H214.9V182.9H212.1L211.7 184.8C212.1 184.5 212.6 184.4 213 184.4C213.6 184.4 214.1 184.6 214.5 185C214.9 185.4 215.1 186 215.1 186.6C215.1 187.2 214.9 187.8 214.5 188.2C214.1 188.8 213.4 189 212.7 189C212.1 189 211.5 188.8 211.1 188.5C210.7 188.2 210.5 187.8 210.4 187.2Z" fill="#141515"/>
<path d="M162.3 189H161.4V183.5C161.2 183.7 160.9 183.9 160.6 184.1C160.3 184.3 160 184.4 159.7 184.5V183.7C160.2 183.5 160.6 183.2 161 182.9C161.4 182.6 161.6 182.3 161.8 182H162.4V189H162.3Z" fill="#141515"/>
<path d="M166.7 189V187.3H163.7V186.5L166.9 182H167.6V186.5H168.5V187.3H167.6V189H166.7ZM166.7 186.5V183.3L164.5 186.5H166.7Z" fill="#141515"/>
<path d="M115.9 189H115V183.5C114.8 183.7 114.5 183.9 114.2 184.1C113.9 184.3 113.6 184.4 113.3 184.5V183.7C113.8 183.5 114.2 183.2 114.6 182.9C115 182.6 115.2 182.3 115.4 182H116V189H115.9Z" fill="#141515"/>
<path d="M117.5 187.2L118.4 187.1C118.5 187.6 118.7 187.9 118.9 188.2C119.1 188.4 119.4 188.5 119.8 188.5C120.2 188.5 120.5 188.4 120.8 188.1C121.1 187.8 121.2 187.5 121.2 187.1C121.2 186.7 121.1 186.4 120.8 186.1C120.5 185.8 120.2 185.7 119.8 185.7C119.6 185.7 119.4 185.7 119.2 185.8L119.3 185C119.4 185 119.4 185 119.4 185C119.8 185 120.1 184.9 120.4 184.7C120.7 184.5 120.8 184.2 120.8 183.8C120.8 183.5 120.7 183.2 120.5 183C120.3 182.8 120 182.7 119.7 182.7C119.4 182.7 119.1 182.8 118.9 183C118.7 183.2 118.5 183.5 118.5 183.9L117.6 183.7C117.7 183.1 117.9 182.7 118.3 182.4C118.7 182.1 119.1 181.9 119.7 181.9C120.1 181.9 120.4 182 120.8 182.1C121.1 182.3 121.4 182.5 121.5 182.8C121.7 183.1 121.8 183.4 121.8 183.7C121.8 184 121.7 184.3 121.6 184.5C121.4 184.7 121.2 184.9 120.9 185.1C121.3 185.2 121.6 185.4 121.9 185.7C122.1 186 122.2 186.4 122.2 186.8C122.2 187.4 122 187.9 121.5 188.4C121.1 188.8 120.5 189 119.8 189C119.2 189 118.7 188.8 118.3 188.5C117.8 188.2 117.6 187.7 117.5 187.2Z" fill="#141515"/>
<path d="M71.9 189H71V183.5C70.8 183.7 70.5 183.9 70.2 184.1C69.9 184.3 69.6 184.4 69.3 184.5V183.7C69.8 183.5 70.2 183.2 70.6 182.9C71 182.6 71.2 182.3 71.4 182H72V189H71.9Z" fill="#141515"/>
<path d="M78 188.2V189H73.4C73.4 188.8 73.4 188.6 73.5 188.4C73.6 188.1 73.8 187.8 74.1 187.5C74.4 187.2 74.7 186.8 75.2 186.4C76 185.8 76.5 185.3 76.7 184.9C77 184.5 77.1 184.2 77.1 183.9C77.1 183.6 77 183.3 76.7 183C76.5 182.8 76.1 182.6 75.7 182.6C75.3 182.6 75 182.7 74.7 183C74.5 183.2 74.3 183.6 74.3 184L73.4 183.9C73.5 183.2 73.7 182.7 74.1 182.4C74.5 182.1 75 181.9 75.7 181.9C76.4 181.9 76.9 182.1 77.3 182.5C77.7 182.9 77.9 183.3 77.9 183.9C77.9 184.2 77.8 184.5 77.7 184.7C77.6 185 77.4 185.3 77.1 185.6C76.8 185.9 76.4 186.3 75.8 186.8C75.3 187.2 75 187.5 74.8 187.7C74.7 187.9 74.5 188 74.4 188.2H78V188.2Z" fill="#141515"/>
<path d="M25.4 189H24.5V183.5C24.3 183.7 24 183.9 23.7 184.1C23.4 184.3 23.1 184.4 22.8 184.5V183.7C23.3 183.5 23.7 183.2 24.1 182.9C24.5 182.6 24.7 182.3 24.9 182H25.5V189H25.4Z" fill="#141515"/>
<path d="M30.3 189H29.4V183.5C29.2 183.7 28.9 183.9 28.6 184.1C28.3 184.3 28 184.4 27.7 184.5V183.7C28.2 183.5 28.6 183.2 29 182.9C29.4 182.6 29.6 182.3 29.8 182H30.4V189H30.3Z" fill="#141515"/>
<path d="M46.7 143.9V143.1H51.2V143.8C50.8 144.3 50.3 144.9 49.9 145.7C49.5 146.5 49.1 147.3 48.9 148.1C48.7 148.7 48.6 149.3 48.6 150H47.7C47.7 149.5 47.8 148.8 48 148C48.2 147.2 48.5 146.5 48.9 145.7C49.3 145 49.7 144.4 50.1 143.9H46.7V143.9Z" fill="#141515"/>
<path d="M94.4 146.2C94 146.1 93.8 145.9 93.6 145.6C93.4 145.4 93.3 145.1 93.3 144.7C93.3 144.2 93.5 143.8 93.8 143.4C94.2 143.1 94.7 142.9 95.3 142.9C95.9 142.9 96.4 143.1 96.8 143.4C97.2 143.7 97.4 144.2 97.4 144.7C97.4 145 97.3 145.3 97.1 145.5C96.9 145.7 96.7 145.9 96.3 146.1C96.7 146.2 97.1 146.5 97.3 146.8C97.5 147.1 97.6 147.5 97.6 147.9C97.6 148.5 97.4 149 97 149.4C96.6 149.8 96 150 95.3 150C94.6 150 94.1 149.8 93.6 149.4C93.2 149 93 148.5 93 147.9C93 147.4 93.1 147.1 93.3 146.8C93.6 146.5 94 146.3 94.4 146.2ZM93.9 147.9C93.9 148.1 94 148.4 94.1 148.6C94.2 148.8 94.4 149 94.6 149.1C94.8 149.2 95.1 149.3 95.3 149.3C95.7 149.3 96 149.2 96.3 148.9C96.6 148.6 96.7 148.3 96.7 147.9C96.7 147.5 96.6 147.1 96.3 146.9C96 146.6 95.7 146.5 95.3 146.5C94.9 146.5 94.6 146.6 94.3 146.9C94.1 147.2 93.9 147.5 93.9 147.9ZM94.2 144.7C94.2 145 94.3 145.3 94.5 145.5C94.7 145.7 95 145.8 95.3 145.8C95.6 145.8 95.9 145.7 96.1 145.5C96.3 145.3 96.4 145 96.4 144.7C96.4 144.4 96.3 144.1 96.1 143.9C95.9 143.7 95.6 143.6 95.3 143.6C95 143.6 94.7 143.7 94.5 143.9C94.3 144.2 94.2 144.4 94.2 144.7Z" fill="#141515"/>
<path d="M139.7 148.3L140.5 148.2C140.6 148.6 140.7 148.9 140.9 149C141.1 149.2 141.4 149.3 141.7 149.3C142 149.3 142.2 149.2 142.4 149.1C142.6 149 142.8 148.8 142.9 148.6C143 148.4 143.1 148.1 143.2 147.8C143.3 147.5 143.3 147.1 143.3 146.8C143.3 146.8 143.3 146.7 143.3 146.6C143.1 146.9 142.9 147.1 142.6 147.3C142.3 147.5 142 147.6 141.6 147.6C141 147.6 140.5 147.4 140.1 147C139.7 146.6 139.5 146 139.5 145.3C139.5 144.6 139.7 144 140.1 143.6C140.5 143.2 141 143 141.7 143C142.2 143 142.6 143.1 142.9 143.4C143.3 143.6 143.6 144 143.8 144.4C144 144.9 144.1 145.5 144.1 146.4C144.1 147.3 144 148 143.8 148.5C143.6 149 143.3 149.4 142.9 149.7C142.5 150 142.1 150.1 141.6 150.1C141.1 150.1 140.6 149.9 140.3 149.6C139.9 149.3 139.7 148.9 139.7 148.3ZM143.2 145.3C143.2 144.8 143.1 144.4 142.8 144.1C142.5 143.8 142.2 143.7 141.9 143.7C141.5 143.7 141.2 143.9 140.9 144.2C140.6 144.5 140.5 144.9 140.5 145.4C140.5 145.8 140.6 146.2 140.9 146.5C141.2 146.8 141.5 146.9 141.9 146.9C142.3 146.9 142.6 146.8 142.9 146.5C143.1 146.1 143.2 145.7 143.2 145.3Z" fill="#141515"/>
<path d="M184.3 150H183.4V144.5C183.2 144.7 182.9 144.9 182.6 145.1C182.3 145.3 182 145.4 181.7 145.5V144.7C182.2 144.5 182.6 144.2 183 143.9C183.4 143.6 183.6 143.3 183.8 143H184.4V150H184.3Z" fill="#141515"/>
<path d="M186 146.5C186 145.7 186.1 145 186.3 144.5C186.5 144 186.7 143.6 187.1 143.3C187.4 143 187.9 142.9 188.4 142.9C188.8 142.9 189.1 143 189.4 143.1C189.7 143.3 189.9 143.5 190.1 143.8C190.3 144.1 190.4 144.4 190.5 144.8C190.6 145.2 190.7 145.8 190.7 146.5C190.7 147.3 190.6 148 190.4 148.5C190.2 149 190 149.4 189.6 149.7C189.3 150 188.8 150.1 188.3 150.1C187.6 150.1 187.1 149.9 186.7 149.4C186.2 148.8 186 147.8 186 146.5ZM186.9 146.5C186.9 147.6 187 148.4 187.3 148.8C187.6 149.2 187.9 149.4 188.3 149.4C188.7 149.4 189 149.2 189.3 148.8C189.6 148.4 189.7 147.7 189.7 146.5C189.7 145.3 189.6 144.6 189.3 144.2C189 143.8 188.7 143.6 188.3 143.6C187.9 143.6 187.6 143.8 187.4 144.1C187 144.6 186.9 145.4 186.9 146.5Z" fill="#141515"/>
<path d="M166 105.6L165.1 105.7C165 105.4 164.9 105.1 164.8 105C164.6 104.8 164.3 104.6 163.9 104.6C163.6 104.6 163.4 104.7 163.2 104.8C162.9 105 162.7 105.3 162.6 105.7C162.4 106.1 162.4 106.6 162.4 107.3C162.6 107 162.9 106.8 163.2 106.6C163.5 106.4 163.8 106.4 164.1 106.4C164.7 106.4 165.2 106.6 165.6 107C166 107.4 166.2 108 166.2 108.6C166.2 109 166.1 109.4 165.9 109.8C165.7 110.2 165.5 110.5 165.1 110.7C164.8 110.9 164.4 111 164 111C163.3 111 162.7 110.7 162.2 110.2C161.7 109.7 161.5 108.8 161.5 107.6C161.5 106.2 161.7 105.3 162.2 104.7C162.6 104.2 163.2 103.9 164 103.9C164.6 103.9 165 104.1 165.4 104.4C165.7 104.7 165.9 105.1 166 105.6ZM162.5 108.6C162.5 108.9 162.6 109.2 162.7 109.4C162.8 109.7 163 109.9 163.2 110C163.4 110.1 163.7 110.2 163.9 110.2C164.3 110.2 164.6 110.1 164.8 109.8C165.1 109.5 165.2 109.1 165.2 108.6C165.2 108.1 165.1 107.7 164.8 107.5C164.5 107.2 164.2 107.1 163.8 107.1C163.4 107.1 163.1 107.2 162.8 107.5C162.6 107.8 162.5 108.2 162.5 108.6Z" fill="#141515"/>
<path d="M117.5 109.1L118.4 109C118.5 109.4 118.6 109.8 118.9 110C119.1 110.2 119.4 110.3 119.8 110.3C120.2 110.3 120.6 110.1 120.9 109.8C121.2 109.5 121.3 109.1 121.3 108.6C121.3 108.1 121.2 107.7 120.9 107.4C120.6 107.1 120.3 107 119.8 107C119.5 107 119.3 107.1 119.1 107.2C118.9 107.3 118.7 107.5 118.6 107.7L117.8 107.6L118.5 104H122V104.8H119.2L118.8 106.7C119.2 106.4 119.7 106.3 120.1 106.3C120.7 106.3 121.2 106.5 121.6 106.9C122 107.3 122.2 107.9 122.2 108.5C122.2 109.1 122 109.7 121.6 110.1C121.2 110.7 120.5 110.9 119.8 110.9C119.2 110.9 118.6 110.7 118.2 110.4C117.8 110.1 117.6 109.7 117.5 109.1Z" fill="#141515"/>
<path d="M73.8 110.9V109.2H70.8V108.4L74 103.9H74.7V108.4H75.6V109.2H74.7V110.9H73.8ZM73.8 108.5V105.3L71.6 108.5H73.8Z" fill="#141515"/>
<path d="M97.6 68.6V69.4H93C93 69.2 93 69 93.1 68.8C93.2 68.5 93.4 68.2 93.7 67.9C94 67.6 94.3 67.2 94.8 66.8C95.6 66.2 96.1 65.7 96.3 65.3C96.6 64.9 96.7 64.6 96.7 64.3C96.7 64 96.6 63.7 96.3 63.4C96.1 63.2 95.7 63 95.3 63C94.9 63 94.6 63.1 94.3 63.4C94.1 63.6 93.9 64 93.9 64.4L93 64.3C93.1 63.6 93.3 63.1 93.7 62.8C94.1 62.5 94.6 62.3 95.3 62.3C96 62.3 96.5 62.5 96.9 62.9C97.3 63.3 97.5 63.7 97.5 64.3C97.5 64.6 97.4 64.9 97.3 65.1C97.2 65.4 97 65.7 96.7 66C96.4 66.3 96 66.7 95.4 67.2C94.9 67.6 94.6 67.9 94.4 68.1C94.3 68.3 94.1 68.4 94 68.6H97.6V68.6Z" fill="#141515"/>
<path d="M139.5 67.6L140.4 67.5C140.5 68 140.7 68.3 140.9 68.6C141.1 68.8 141.4 68.9 141.8 68.9C142.2 68.9 142.5 68.8 142.8 68.5C143.1 68.2 143.2 67.9 143.2 67.5C143.2 67.1 143.1 66.8 142.8 66.5C142.5 66.2 142.2 66.1 141.8 66.1C141.6 66.1 141.4 66.1 141.2 66.2L141.3 65.4C141.4 65.4 141.4 65.4 141.4 65.4C141.8 65.4 142.1 65.3 142.4 65.1C142.7 64.9 142.8 64.6 142.8 64.2C142.8 63.9 142.7 63.6 142.5 63.4C142.3 63.2 142 63.1 141.7 63.1C141.4 63.1 141.1 63.2 140.9 63.4C140.7 63.6 140.5 63.9 140.5 64.3L139.6 64.1C139.7 63.5 139.9 63.1 140.3 62.8C140.7 62.5 141.1 62.3 141.7 62.3C142.1 62.3 142.4 62.4 142.8 62.5C143.1 62.7 143.4 62.9 143.5 63.2C143.7 63.5 143.8 63.8 143.8 64.1C143.8 64.4 143.7 64.7 143.6 64.9C143.4 65.1 143.2 65.3 142.9 65.5C143.3 65.6 143.6 65.8 143.9 66.1C144.1 66.4 144.2 66.8 144.2 67.2C144.2 67.8 144 68.3 143.5 68.8C143.1 69.2 142.5 69.4 141.8 69.4C141.2 69.4 140.7 69.2 140.3 68.9C139.8 68.6 139.6 68.2 139.5 67.6Z" fill="#141515"/>
<path d="M120.8 30.4H119.9V24.9C119.7 25.1 119.4 25.3 119.1 25.5C118.8 25.7 118.5 25.8 118.2 25.9V25.1C118.7 24.9 119.1 24.6 119.5 24.3C119.9 24 120.1 23.7 120.3 23.4H120.9V30.4H120.8Z" fill="#141515"/>
</svg>
