<svg width="975" height="660" viewBox="0 0 975 660" fill="none" xmlns="http://www.w3.org/2000/svg">
<path d="M489.327 33.0044C473.631 34.2629 458.591 42.5607 448.8 54.6958C432.682 74.7067 437.674 106.838 443.372 129.608C453.509 170.004 459.36 221.164 446.307 262.729C421.401 250.886 393.551 244.249 364.182 244.249C323.284 244.249 285.335 257.119 254.179 279.001C251.262 273.483 248.703 267.803 246.723 261.876C239.041 238.925 237.8 216.436 236.141 192.717C234.846 174.523 234.364 144.824 221.061 130.61C209.85 118.666 194.445 110.116 178.022 110.17C176.604 110.175 175.177 110.251 173.745 110.387C173.438 110.369 173.149 110.386 172.897 110.469C155.486 116.227 144.159 131.565 142.749 149.6C141.248 168.909 154.455 188.523 162.016 205.713C174.522 234.188 183.67 265.904 181.423 297.235C180.178 314.173 175.393 331.171 172.143 347.985L163.591 341.614C142.737 318.934 132.448 290.534 114.075 265.94C104.703 253.388 90.3765 245.711 75.5106 245.543C68.0024 245.459 60.3599 247.305 53.1453 251.391C52.8317 251.506 52.548 251.645 52.3406 251.84C14.1956 287.59 74.6996 323.051 96.0906 346.708C114.112 366.647 123.359 387.831 129.569 413.372C133.824 430.857 137.339 449.426 146.403 465.172C156.193 482.176 167.881 500.252 182.327 514.549C178.018 514.288 173.771 513.873 169.638 513.266C144.878 509.638 119.323 507.495 94.3485 509.948C66.4996 512.683 43.3524 536.183 41.618 564.606C41.5517 564.899 41.5208 565.18 41.5594 565.436C44.1223 582.098 55.0861 596.727 70.1903 603.94C89.3906 613.07 115.018 605.433 133.97 599.614C158.408 592.118 183.984 587.784 209.497 586.651C224.953 585.962 239.353 587.696 253.538 591.178C284.814 601.765 323.003 626.387 364.182 626.387C373.558 626.387 382.777 625.703 391.796 624.395C395.126 624.3 398.476 624.198 401.694 624.12C416.331 623.746 430.424 621.962 444.159 619.114C448.761 627.366 454.869 634.102 464.93 636.034C479.866 638.917 495.163 639.568 510.305 638.399C520.428 637.611 531.941 637.515 537.237 628.387C543.557 617.46 549.417 606.251 554.825 594.827C555.931 595.814 557.056 596.775 558.214 597.682C562.975 601.41 567.417 600.515 572.905 599.598C577.894 610.231 584.53 620.332 594.36 622.174C608.177 624.756 622.305 625.12 636.264 623.893C646.808 622.948 657.628 622.55 662.757 612.999C671.293 597.129 678.664 580.954 684.763 564.444C696.585 557.439 707.916 549.502 718.581 541.192C721.435 538.971 724.079 536.684 726.587 534.344C730.004 545.153 733.744 555.858 737.973 566.364C740.918 573.615 744.46 583.478 751.206 588.135C759.174 593.626 774.855 592.77 783.821 592.756C796.156 592.736 801.73 592.141 807.544 582.428C814.992 569.985 821.428 556.972 827.118 543.665C840.125 513.206 845.963 476.535 842.384 443.543C840.933 430.23 836.161 418.403 831.622 405.926C843.606 398.631 856.172 392.566 869.1 386.194C885.46 378.124 912.782 366.465 920.903 348.76C928.319 332.585 930.152 313.348 921.757 297.325C921.659 297.035 921.534 296.774 921.362 296.573C912.795 286.543 900.842 281.303 888.397 281.194C883.527 281.151 878.582 281.894 873.735 283.442C855.291 289.349 842.123 308.991 829.057 322.477C823.214 328.521 817.046 334.415 810.583 340.006C808.355 308.09 819.332 278.92 821.149 247.303C822.472 223.769 808.125 201.484 783.835 196.981C783.522 196.868 783.217 196.793 782.934 196.809C730.717 199.656 754.262 265.717 755.421 297.596C756.437 324.455 749.877 346.612 738.218 370.18C736.647 373.346 735.028 376.53 733.419 379.729C720.621 382.366 707.475 384.107 694.925 386.967C694.522 385.942 694.125 384.915 693.692 383.897C687.553 369.411 681.391 354.911 675.196 340.426C671.695 332.23 668.188 324.021 664.667 315.833C660.691 306.502 654.528 296.368 652.239 286.499C646.604 262.342 645.188 233.964 649.862 209.651C654.57 185.06 657.829 159.637 656.464 134.565C654.936 106.64 632.484 82.4885 604.161 79.5083C603.996 79.4631 603.832 79.4206 603.677 79.4087C603.557 79.3997 603.438 79.4007 603.325 79.4127C586.575 81.2374 571.479 91.5584 563.612 106.325C553.651 125.107 560.158 151.052 565.136 170.233C571.555 194.977 574.787 220.714 574.796 246.253C574.788 271.19 568.682 293.109 559.005 315.639C558.594 316.598 558.179 317.562 557.766 318.524C557.13 316.909 556.495 315.291 555.858 313.676C549.614 297.849 539.719 280.631 536.317 264.049C534.049 252.993 533.282 241.625 532.784 230.381C530.876 187.034 545.065 145.968 545.811 102.794C546.095 87.2011 544.595 74.5538 535.516 61.983C524.543 46.8497 508.819 35.4699 490.106 33.1041C489.835 33.0262 489.573 32.9859 489.327 33.0045V33.0044Z" fill="black"/>
<path d="M497.63 44.0161C497.637 44.017 497.644 44.0191 497.651 44.0201C512.753 45.7211 525.164 53.202 533.089 66.2291C538.572 75.2734 536.027 93.5765 535.522 103.727C534.409 126.428 530.475 149.19 525.475 171.331C524.059 177.594 523.117 184.106 522.553 190.743C521.511 206.448 521.448 207.059 522.509 223.62C522.953 229.955 524.145 235.972 524.968 242.103C527.249 257.615 531.083 269.337 533.55 276.521C535.062 280.715 537.999 286.776 539.386 290.28C547.299 310.269 554.8 327.684 562.669 347.715C572.432 372.615 578.878 392.826 579.964 420.243C580.911 443.974 579.243 468.189 575.557 491.643C570.033 526.928 557.146 560.209 541.415 592.106C536.941 601.233 532.079 610.201 526.983 619.024C520.926 629.507 499.249 627.84 488.393 627.999C476.755 628.159 464.698 626.973 453.245 624.413C432.895 589.46 421.84 546.836 410.624 508.46C401.026 475.74 404.429 437.233 408.163 403.794C409.954 387.738 412.809 373.881 418.735 358.821C427.441 336.694 437.515 315.078 447.61 293.553C449.86 288.758 451.785 283.89 453.454 278.963C459.499 261.15 459.181 259.686 461.458 240.487C461.967 235.303 462.287 230.078 462.462 224.821C463.01 205.366 462.604 205.102 461.37 188.917C460.058 174.31 457.783 159.766 454.864 145.491C450.529 124.318 444.512 101.023 450.784 79.7193C456.644 59.8099 477.422 45.6547 497.63 44.0162V44.0161Z" fill="white"/>
<path d="M79.0672 250.952C93.28 250.575 101.93 265.842 110.319 279.149C118.192 291.652 123.94 305.277 131.991 317.649C132.596 318.58 133.257 319.578 133.905 320.561C139.593 329.186 140.449 330.318 146.44 337.67C148.563 340.177 150.778 342.573 153.081 344.747C161.094 352.241 162.246 352.991 170.288 359.006C167.959 375.701 168.234 390.108 170.575 407.2C171.287 412.41 172.094 417.69 173.026 422.985C172.764 427.064 172.616 431.175 172.616 435.319C172.616 459.22 177.067 482.1 185.149 503.21C174.621 490.521 165.57 476.384 157.618 462.075C150.408 449.084 147.859 432.938 144.313 418.653C141.879 408.838 139.867 399.326 136.55 390.016C132.573 379.141 131.07 378.861 124.868 367.014C123.419 364.827 121.902 362.679 120.325 360.569C113.852 351.645 112.029 349.298 105.12 342.838C100.569 338.115 95.8502 333.589 91.1141 329.245C79.7013 318.774 67.506 309.722 58.5203 296.801C49.7564 284.208 55.2668 265.118 65.6864 255.342C65.6914 255.339 65.6986 255.337 65.704 255.334C70.6723 252.389 75.0877 251.057 79.0672 250.952L79.0672 250.952Z" fill="white"/>
<path d="M611.909 90.1763C611.926 90.1783 611.944 90.1823 611.962 90.1843C668.861 95.31 641.944 173.114 638.448 209.389C637.985 214.169 637.71 218.968 637.577 223.774C637.913 234.766 637.903 245.76 638.264 249.778C638.97 257.336 639.43 259.938 640.881 267.367C645.273 284.366 645.955 285.588 650.776 298.923C662.472 326.201 674.12 353.491 685.706 380.807C696.258 405.671 695.618 434.962 694.493 461.528C693.472 485.871 689.739 509.507 682.61 532.88C674.841 558.317 663.774 583.053 650.944 606.356C646.112 615.131 619.333 613.859 610.325 613.8C602.346 613.753 594.168 613.007 586.264 611.52C578.178 598.1 571.959 583.323 566.36 568.432C568.326 563.537 570.214 558.612 572.018 553.661C580.765 529.612 585.64 504.886 588.13 479.516C589.609 464.422 590.189 449.251 590.003 434.108C589.816 419.518 589.981 400.619 584.567 386.79C577.947 369.828 571.29 352.883 564.624 335.944C570.153 323.044 575.967 310.412 579.8 296.96C583.934 284.094 584.135 277.878 585.012 263.426C585.226 259.033 585.287 254.625 585.212 250.21C584.944 238.503 584.024 234.378 582.718 218.624C581.792 211.647 580.673 204.73 579.44 197.925C575.468 176.087 568.962 155.399 569.169 132.856C569.397 110.583 589.542 94.3391 609.868 90.4851C610.532 90.3519 611.229 90.263 611.909 90.1765V90.1763Z" fill="white"/>
<path d="M188.009 118.936C232.177 118.256 222.345 189.715 226.643 220.346C226.896 222.148 227.174 224.061 227.466 226.006C229.406 237.724 229.199 238.204 232.481 250.94C235.605 263.925 240.342 277.358 244.013 286.661C213.471 311.273 190.627 345.027 179.725 383.711C179.938 367.779 184.595 351.051 187.524 335.772C189.728 324.236 192.054 313.326 193.055 302.059C194.168 288.738 192.848 282.322 191.97 271.641C191.485 268.427 190.907 265.224 190.237 262.034C188.411 252.036 186.02 246.855 182.72 235.292C179.877 227.06 176.663 218.978 173.28 211.108C166.132 194.48 157.545 178.725 154.675 160.547C151.825 142.492 167.314 124.614 183.54 119.231C183.548 119.23 183.556 119.232 183.563 119.231C185.103 119.055 186.584 118.958 188.009 118.936H188.009Z" fill="white"/>
<path d="M790.929 208.079C816.964 212.391 812.494 235.044 809.761 254.983C807.764 269.643 803.397 283.771 801.616 298.417C801.234 301.531 800.843 304.957 800.516 308.518C800.048 319.301 799.921 316.404 800.056 329.827C800.257 332.47 801.339 343.725 801.829 346.196C794.163 353.292 792.687 353.941 789.091 356.473C777.414 364.257 764.931 370.705 751.661 375.034C751.174 375.192 750.68 375.338 750.19 375.491C752.982 369.869 755.676 364.298 757.94 358.493C760.931 351.056 763.067 343.12 764.101 334.338C764.366 332.376 764.569 330.403 764.745 328.424C765.903 319.746 765.472 317.923 765.136 305.674C764.756 297.365 763.899 289.092 762.845 281.022C760.843 265.664 757.322 250.884 758.747 235.217C760.14 219.925 776.656 208.843 790.929 208.078L790.929 208.079Z" fill="white"/>
<path d="M884.202 294.387C896.649 294.424 909.626 300.798 917.278 309.747C917.278 309.753 917.278 309.759 917.288 309.764C941.111 353.242 867.545 371.801 839.942 387.852C838.369 388.766 836.704 389.744 835.013 390.749L813.815 404.811C810.685 407.224 807.681 409.752 804.948 412.393C804.948 412.393 792.645 427.132 788.204 435.26C773.897 457.617 759.55 479.951 745.142 502.243C733.005 521.032 712.721 534.277 694.097 546.03C692.826 546.832 691.544 547.605 690.265 548.383C699.227 519.883 704.362 490.371 705.062 459.682C705.525 439.062 704.488 418.457 698.919 398.819C705.509 397.59 712.067 396.496 718.29 395.247C729.807 392.927 740.79 390.96 751.603 387.627C751.603 387.627 774.96 379.402 779.347 375.126C782.138 373.463 784.885 371.717 787.585 369.891L809.503 352.825C816.049 347.084 822.319 341.058 828.329 334.956C841.023 322.053 852.359 308.141 868.108 298.62C872.998 295.664 878.546 294.371 884.204 294.387L884.202 294.387Z" fill="white"/>
<path d="M396.118 458.063C397.533 480.598 401.434 502.943 408.481 525.088C416.461 550.237 425.076 575.241 435.399 599.532C437.029 603.376 438.604 607.398 440.329 611.315C414.322 614.808 387.459 614.438 361.419 612.094C342.243 610.353 323.044 601.515 305.153 594.981C291.144 589.874 277.599 584.046 263.317 580.272C250.182 576.125 243.739 575.996 228.261 575.696C224.525 575.637 220.78 575.693 217.034 575.85C205.871 575.491 198.791 576.631 185.05 579.342C176.932 580.697 168.895 582.332 161.016 584.118C139.386 589.027 118.989 596.433 96.4735 597.219C74.2181 597.959 57.0937 578.532 52.3621 558.415C52.1949 557.726 52.0691 557.034 51.9559 556.329C51.9549 556.322 51.9509 556.318 51.9499 556.311C54.604 499.288 133.48 522.755 169.876 524.672C174.198 524.899 178.529 524.982 182.862 524.94C195.25 525.062 198.631 524.112 212.309 522.811C217.135 522.2 221.281 521.5 225.628 520.838C235.639 518.228 242.51 516.379 255.911 509.813C283.599 496.464 311.318 483.171 339.079 469.936C356.502 461.615 376.444 458.933 396.118 458.063H396.118Z" fill="white"/>
<path d="M481.979 187.717C480.744 187.723 479.543 187.742 478.354 187.768L475.499 222.579C492.08 220.537 508.323 221.485 522.509 223.62C521.448 207.059 521.511 206.448 522.554 190.743C506.83 188.511 493.379 187.665 481.979 187.717ZM469.016 188.198C466.321 188.389 463.783 188.635 461.37 188.917C462.604 205.102 463.01 205.366 462.462 224.821C462.462 224.821 462.462 224.822 462.462 224.823C464.384 224.395 466.308 224.008 468.231 223.667L469.016 188.198ZM587.962 218.336C586.133 218.355 584.392 218.405 582.696 218.471C582.703 218.522 582.711 218.573 582.718 218.624C584.002 234.118 584.91 238.399 585.194 249.67C588.274 249.355 591.345 249.131 594.397 248.999L593.04 218.471C591.402 218.451 589.505 218.322 587.962 218.338V218.336ZM601.999 218.711L601.386 248.797C614.643 248.794 627.325 250.381 638.552 252.575C638.457 251.669 638.365 250.858 638.264 249.778C637.903 245.76 637.913 234.766 637.577 223.774C637.585 223.499 637.598 223.223 637.606 222.948C624.02 220.55 612.258 219.271 601.999 218.711ZM227.466 226.004C214.825 227.245 204.313 229.165 195.596 231.387L199.751 258.073C210.888 254.046 222.206 251.944 232.481 250.938C229.2 238.205 229.405 237.723 227.466 226.006C227.466 226.006 227.466 226.005 227.466 226.004ZM188.589 233.344C186.509 233.982 184.559 234.633 182.72 235.292C186.02 246.855 188.411 252.036 190.237 262.034C191.626 261.378 193.025 260.757 194.429 260.165L188.589 233.344ZM574.682 238.336L574.524 251.186C574.587 251.174 574.649 251.164 574.712 251.153C574.765 249.531 574.795 247.9 574.796 246.252C574.795 243.616 574.752 240.976 574.682 238.336ZM482.337 239.186C479.973 239.202 477.726 239.268 475.536 239.356L477.684 273.889C498 271.569 517.701 273.698 533.692 276.895C533.647 276.774 533.592 276.641 533.55 276.522C531.102 269.392 527.311 257.783 525.024 242.448C508.389 240.018 494.229 239.108 482.337 239.186ZM467.872 239.817C465.617 240.003 463.504 240.234 461.458 240.485C461.458 240.486 461.458 240.486 461.458 240.487C459.181 259.686 459.499 261.15 453.454 278.963C457.971 277.547 462.522 276.407 467.073 275.524L467.872 239.817ZM235.507 262.09C221.997 263.567 210.975 265.807 202.067 268.34L209.971 294.061C221.559 289.809 233.374 287.65 244.013 286.661C241.393 280.022 238.238 271.272 235.507 262.09ZM601.696 262.874L605.555 293.598C622.18 293.152 637.942 295.73 650.776 298.92C645.956 285.588 645.273 284.364 640.882 267.366C640.853 267.22 640.837 267.129 640.809 266.987C625.467 264.236 612.507 263.057 601.696 262.874ZM594.852 262.887C591.31 262.967 588.036 263.156 585.013 263.426C584.135 277.878 583.934 284.094 579.8 296.96C585.238 295.625 590.701 294.714 596.122 294.178L594.852 262.887ZM196.571 270.02C194.948 270.554 193.433 271.096 191.97 271.641C192.848 282.322 194.168 288.738 193.055 302.059C196.127 300.233 199.271 298.599 202.458 297.147L196.571 270.02ZM770.161 305.571C768.397 305.567 766.742 305.61 765.136 305.672C765.136 305.673 765.136 305.674 765.136 305.674C765.472 317.923 765.903 319.746 764.745 328.422C766.226 328.226 767.704 328.056 769.177 327.932L769.218 327.245L770.44 305.575C770.349 305.574 770.252 305.571 770.161 305.571ZM776.167 305.717L773.569 327.415L773.579 327.67C783.023 327.312 792.094 328.309 800.055 329.825C799.921 316.405 800.048 319.3 800.516 308.518C800.516 308.517 800.516 308.517 800.516 308.516C791.25 306.886 783.166 306.029 776.169 305.717H776.167ZM133.907 320.563C126.486 325.1 120.389 329.449 115.382 333.504L127.796 352.239C133.683 346.445 140.135 341.636 146.44 337.67C140.449 330.319 139.593 329.185 133.907 320.563ZM768.805 334.196C767.149 334.207 765.6 334.264 764.1 334.338C763.067 343.12 760.931 351.056 757.94 358.493C761.111 357.786 764.291 357.282 767.454 356.95L768.805 334.196ZM773.759 334.26L774.372 356.479C780.894 356.286 785.213 356.189 789.1 356.465C792.688 353.94 794.171 353.284 801.829 346.196C801.566 344.867 801.153 341.158 800.776 337.454C790.225 335.437 781.279 334.507 773.759 334.26ZM110.763 337.424C108.644 339.315 106.78 341.122 105.122 342.84C112.029 349.299 113.852 351.646 120.325 360.569C120.326 360.57 120.326 360.572 120.327 360.573C121.661 358.876 123.053 357.246 124.489 355.676L110.763 337.424ZM163.579 341.6C163.583 341.605 163.587 341.609 163.591 341.614L172.143 347.985C172.144 347.984 172.143 347.982 172.143 347.981L163.579 341.6ZM153.083 344.749C144.867 349.863 138.318 354.729 133.114 359.19L148.052 375.889C155.047 368.937 162.862 363.385 170.288 359.008C170.288 359.008 170.288 359.007 170.288 359.006C162.246 352.992 161.093 352.241 153.083 344.749ZM809.503 352.825L787.585 369.891C788.715 370.927 789.817 371.982 790.893 373.055L813.528 357.528C812.15 355.84 810.809 354.281 809.503 352.825ZM129.536 362.381C127.801 363.997 126.263 365.54 124.87 367.018C131.07 378.861 132.574 379.142 136.55 390.016C136.55 390.018 136.551 390.02 136.552 390.022C138.642 386.747 140.952 383.681 143.425 380.819L129.536 362.381ZM817.979 363.266L794.845 377.196C802.782 385.988 809.005 395.677 813.817 404.811L835.013 390.749C829.086 379.511 823.333 370.499 817.979 363.266ZM779.346 375.126C774.96 379.401 751.61 387.626 751.604 387.627C754.456 389.783 757.158 392.074 759.706 394.477L782.579 378.764C781.473 377.465 780.402 376.272 779.346 375.126ZM786.214 383.223L765.401 400.27C775.577 411.44 782.984 424.113 788.204 435.26C792.645 427.132 804.948 412.393 804.948 412.393C804.949 412.392 804.949 412.392 804.95 412.391C798.362 400.158 792.015 390.63 786.214 383.223ZM255.917 509.811C255.915 509.812 255.913 509.812 255.911 509.813C242.513 516.377 235.641 518.227 225.634 520.836C224.54 537.72 224.986 551.58 226.259 562.805L257.083 558.649C253.792 541.248 254.245 524.058 255.917 509.811ZM212.309 522.811C198.633 524.111 195.251 525.062 182.868 524.94C181.823 539.967 182.002 552.614 182.901 563.174L214.112 563.502C211.498 549.282 211.352 535.224 212.315 522.811C212.313 522.811 212.311 522.811 212.309 522.811ZM259.177 567.799L227.138 569.391C227.483 571.622 227.866 573.702 228.266 575.696C243.74 575.995 250.183 576.126 263.317 580.272C263.319 580.273 263.321 580.273 263.323 580.274C261.678 576.158 260.303 571.988 259.177 567.799ZM215.485 569.967L183.805 571.53C184.177 574.309 184.601 576.897 185.057 579.34C198.794 576.63 205.873 575.491 217.034 575.85C217.037 575.85 217.039 575.85 217.042 575.85C216.473 573.893 215.953 571.931 215.485 569.967Z" fill="#ED0000"/>
<path d="M826.294 409.278C827.265 411.995 828.24 414.71 829.21 417.428C840.66 449.598 832.215 493.992 820.766 525.522C814.179 543.671 805.006 561.14 794.753 577.481C790.998 583.459 773.319 581.584 767.094 581.315C761.227 581.073 755.207 580.204 749.407 578.833C741.75 563.49 737.152 546.241 732.305 530.001C732.222 529.721 732.144 529.449 732.061 529.17C731.322 529.859 730.569 530.539 729.813 531.217C742.072 518.891 750.68 504.998 760.62 489.567C775.488 466.5 788.084 440.171 809.071 422.126C814.638 417.344 820.389 413.129 826.294 409.278V409.278Z" fill="white"/>
<path d="M360.356 274.985C374.472 274.985 386.286 286.799 386.286 300.915C386.286 315.03 374.472 326.844 360.356 326.844C346.24 326.844 334.427 315.03 334.427 300.915C334.427 286.799 346.24 274.985 360.356 274.985Z" fill="white"/>
<path d="M280.839 307.831C294.954 307.831 306.768 319.644 306.768 333.76C306.768 347.876 294.954 359.69 280.839 359.69C266.723 359.69 254.909 347.876 254.909 333.76C254.909 319.644 266.723 307.831 280.839 307.831Z" fill="white"/>
<path d="M344.798 350.182C358.913 350.182 370.727 361.996 370.727 376.112C370.727 390.228 358.913 402.042 344.798 402.042C330.682 402.042 318.868 390.228 318.868 376.112C318.868 361.996 330.682 350.182 344.798 350.182V350.182Z" fill="white"/>
<path d="M563.126 576.274C563.65 577.492 564.155 578.708 564.686 579.928C565.532 581.87 566.438 584.133 567.384 586.514C564.99 586.66 562.472 585.476 559.979 583.559C561.048 581.139 562.097 578.711 563.126 576.274Z" fill="white"/>
</svg>
